<?xml version="1.0" standalone="no"?>
<!DOCTYPE svg PUBLIC "-//W3C//DTD SVG 20010904//EN"
 "http://www.w3.org/TR/2001/REC-SVG-20010904/DTD/svg10.dtd">
<svg version="1.0" xmlns="http://www.w3.org/2000/svg"
 width="500.000000pt" height="500.000000pt" viewBox="0 0 500.000000 500.000000"
 preserveAspectRatio="xMidYMid meet">

<g transform="translate(0.000000,500.000000) scale(0.100000,-0.100000)"
fill="#000000" stroke="none">
<path d="M0 2500 l0 -2500 2500 0 2500 0 0 2500 0 2500 -2500 0 -2500 0 0
-2500z m2858 2379 c66 -10 82 -15 77 -27 -4 -12 -3 -13 10 -2 9 8 25 10 42 5
16 -4 37 -9 48 -11 59 -11 247 -69 327 -100 160 -63 335 -154 466 -242 103
-69 273 -205 332 -266 l45 -46 -82 -82 -81 -81 -74 68 c-136 127 -406 312
-518 355 -22 8 -108 85 -230 204 l-195 191 175 -177 c96 -98 172 -178 168
-178 -3 0 -28 9 -54 20 -133 57 -361 119 -497 135 -49 6 -57 9 -52 23 5 15 5
16 -10 1 -13 -13 -28 -14 -93 -6 -74 8 -334 3 -417 -8 -114 -16 -179 -28 -267
-50 -107 -27 -267 -79 -311 -102 -16 -8 -31 -13 -33 -11 -2 2 77 84 175 182
143 143 184 179 208 180 16 2 34 5 39 8 5 3 50 11 99 17 50 6 104 13 120 15
63 9 504 -2 583 -15z m-1073 -220 c-108 -108 -198 -190 -225 -204 l-45 -23
-50 46 -50 47 44 -47 c25 -26 43 -49 40 -51 -2 -2 -48 -29 -101 -60 -120 -71
-269 -182 -366 -272 l-73 -68 -80 79 c-43 43 -79 82 -79 86 0 11 112 115 202
187 90 72 168 126 266 185 l64 38 41 -38 42 -39 -38 41 -39 42 94 45 c51 25
134 62 183 82 88 36 306 104 335 105 8 0 -66 -81 -165 -181z m-1242 81 c27
-30 27 -31 27 -183 l0 -152 -112 -112 c-62 -62 -115 -113 -118 -113 -3 0 -4
102 -2 227 l3 227 112 -110 112 -109 -117 121 c-116 119 -118 121 -108 154 28
97 136 124 203 50z m35 -789 c4 0 32 31 62 70 30 38 76 91 103 116 l47 48 82
-82 81 -81 -74 -83 c-73 -83 -179 -220 -179 -233 0 -3 28 -6 62 -6 l63 0 -120
-120 c-66 -66 -124 -120 -129 -120 -5 0 -61 51 -123 113 l-114 113 1 239 1
240 112 113 112 112 3 -220 c1 -121 6 -220 10 -219z m3702 162 c34 -38 93
-108 130 -158 72 -95 200 -293 200 -310 0 -6 -38 -48 -83 -93 l-84 -83 -63
110 c-80 139 -193 293 -299 404 l-35 37 79 80 c44 44 83 80 86 80 4 0 35 -30
69 -67z m-1465 -297 c261 -68 443 -172 631 -360 186 -186 293 -373 360 -631
22 -82 27 -131 31 -268 6 -176 -2 -261 -38 -397 -53 -202 -166 -411 -299 -554
-33 -35 -60 -65 -60 -67 0 -2 274 -3 610 -1 l610 3 0 -128 0 -128 -120 120
-119 121 -113 -113 -113 -113 -255 0 -255 0 -112 112 -113 113 -61 -60 c-46
-45 -60 -54 -56 -37 3 12 4 22 2 22 -2 0 -39 -24 -82 -54 -136 -94 -279 -158
-448 -202 -82 -22 -131 -27 -268 -31 -267 -9 -437 27 -662 140 -130 65 -223
133 -341 251 -187 187 -290 367 -361 631 -25 94 -27 112 -27 320 0 208 2 226
27 320 61 228 166 427 300 571 l52 56 -125 124 -125 124 147 0 c143 0 147 -1
177 -26 17 -14 36 -43 42 -64 l12 -39 71 48 c95 64 165 101 261 139 193 76
293 92 530 88 166 -3 203 -7 290 -30z m-1425 -231 l115 -115 -450 0 -450 0
115 115 115 115 220 0 220 0 115 -115z m-945 -15 l100 -100 -103 0 -102 0 0
100 c0 55 1 100 3 100 1 0 47 -45 102 -100z m4210 -10 c66 -131 185 -461 185
-513 0 -20 -378 365 -385 391 -5 22 6 37 77 109 45 46 84 83 85 83 2 0 19 -31
38 -70z m209 -635 c38 -215 48 -433 21 -484 -14 -28 -68 -61 -100 -61 -32 0
-86 33 -100 61 -8 15 -15 52 -15 81 0 77 -27 318 -45 406 -29 138 -75 293
-119 394 -9 21 -16 41 -16 45 0 4 81 -73 179 -172 l179 -180 16 -90z m-4594
-320 c43 -22 60 -63 61 -142 0 -37 3 -98 8 -135 6 -55 4 -71 -8 -83 -15 -15
-14 -15 2 -9 11 4 17 1 17 -7 1 -68 47 -275 88 -404 27 -83 82 -217 94 -233 6
-7 9 -15 6 -17 -2 -2 -90 82 -195 188 -176 177 -191 195 -197 236 -4 28 -2 48
5 57 9 12 9 13 -3 9 -20 -8 -37 112 -45 315 -6 173 -3 188 50 220 38 24 78 25
117 5z m290 -1077 c0 -4 29 -57 65 -117 78 -131 188 -280 280 -379 l68 -74
-82 -81 -82 -82 -71 75 c-197 208 -360 466 -475 749 -33 83 -93 272 -93 295 0
6 88 -77 195 -184 107 -107 195 -198 195 -202z m3010 -124 l105 -105 -132 3
c-124 3 -133 4 -158 28 -50 47 -49 59 13 123 31 31 59 57 62 57 3 0 53 -48
110 -106z m973 -12 l117 -117 0 -235 0 -235 -112 -115 -113 -115 113 110 112
110 0 -235 0 -235 -116 116 -116 116 1 247 c1 135 -2 246 -6 246 -5 0 -45 -44
-90 -97 -45 -54 -95 -111 -113 -128 l-31 -29 -81 81 -82 82 60 66 c32 37 94
112 138 168 l78 102 -48 3 -47 3 104 105 c57 57 106 104 109 104 3 0 58 -53
123 -118z m-3489 -507 c105 -94 247 -196 367 -265 l110 -63 -83 -84 c-45 -45
-87 -83 -93 -83 -17 0 -215 128 -312 201 -50 38 -122 98 -160 134 l-68 63 80
81 c44 45 82 80 86 79 3 -2 36 -30 73 -63z m3051 -16 l80 -81 -60 -55 c-118
-108 -311 -249 -442 -324 l-42 -24 -86 85 c-47 46 -85 87 -85 90 0 3 26 18 58
34 116 57 273 168 412 290 41 36 77 66 80 66 3 0 41 -36 85 -81z m-2370 -509
c104 -104 185 -190 179 -190 -46 0 -350 113 -478 177 l-69 35 84 84 c46 46 86
84 89 84 3 0 91 -85 195 -190z m1815 105 l83 -83 -59 -30 c-97 -49 -243 -108
-344 -140 -172 -54 -174 -63 30 145 l185 188 -195 -192 c-190 -186 -196 -192
-250 -202 -159 -32 -252 -42 -426 -48 -204 -6 -344 4 -524 38 l-105 20 -187
187 c-103 102 -186 187 -184 189 1 2 34 -11 72 -28 185 -84 395 -138 640 -164
175 -19 253 -19 429 0 239 25 460 83 650 169 38 18 77 33 86 33 9 1 53 -36 99
-82z m1110 -162 c0 -6 -15 -28 -34 -47 -29 -31 -39 -36 -81 -36 -40 0 -52 5
-81 34 l-34 34 0 128 0 129 115 -115 c63 -63 115 -120 115 -127z"/>
<path d="M2859 4773 l-24 -28 28 24 c25 23 32 31 24 31 -2 0 -14 -12 -28 -27z"/>
<path d="M2348 3681 c-146 -47 -286 -170 -392 -346 -20 -33 -36 -63 -36 -67 0
-5 113 -8 250 -8 l250 0 0 220 c0 121 -3 220 -7 219 -5 0 -34 -8 -65 -18z"/>
<path d="M2570 3480 l0 -220 250 0 c138 0 250 3 250 8 0 14 -73 128 -122 189
-85 107 -199 190 -307 223 -35 11 -65 20 -67 20 -2 0 -4 -99 -4 -220z"/>
<path d="M1832 3501 c-88 -58 -233 -186 -253 -223 -9 -17 -3 -18 80 -18 l90 0
31 63 c17 34 58 101 90 150 33 48 58 87 56 87 -2 0 -44 -27 -94 -59z"/>
<path d="M3119 3473 c33 -49 74 -116 91 -150 l31 -63 90 0 c83 0 89 1 80 18
-18 33 -158 159 -232 209 -123 83 -125 83 -60 -14z"/>
<path d="M1418 3028 c-47 -98 -84 -214 -103 -322 -24 -140 -38 -126 134 -126
l148 0 6 88 c8 110 33 254 62 355 l22 77 -117 0 -117 0 -35 -72z"/>
<path d="M1822 3028 c-39 -132 -71 -315 -72 -405 l0 -43 335 0 335 0 0 260 0
260 -289 0 -288 0 -21 -72z"/>
<path d="M2570 2840 l0 -260 335 0 335 0 0 43 c-1 90 -33 273 -72 405 l-21 72
-288 0 -289 0 0 -260z"/>
<path d="M3325 3023 c29 -99 54 -243 62 -355 l6 -88 148 0 c85 0 149 4 149 9
0 5 -5 44 -11 87 -15 108 -53 234 -101 337 l-41 87 -117 0 -117 0 22 -77z"/>
<path d="M1300 2411 c0 -39 31 -199 51 -261 12 -36 39 -104 62 -152 l40 -88
117 0 117 0 -22 78 c-29 100 -54 244 -62 355 l-6 87 -148 0 c-139 0 -149 -1
-149 -19z"/>
<path d="M1750 2388 c1 -91 33 -274 72 -405 l21 -73 288 0 289 0 0 260 0 260
-335 0 -335 0 0 -42z"/>
<path d="M2570 2170 l0 -260 289 0 288 0 21 73 c39 131 71 314 72 405 l0 42
-335 0 -335 0 0 -260z"/>
<path d="M3387 2343 c-8 -113 -33 -257 -62 -355 l-22 -78 117 0 117 0 41 88
c48 102 86 228 101 336 6 43 11 82 11 87 0 5 -64 9 -149 9 l-148 0 -6 -87z"/>
<path d="M1570 1748 c0 -21 161 -172 241 -225 123 -83 125 -83 60 14 -33 49
-74 117 -93 153 l-33 65 -88 3 c-66 2 -87 0 -87 -10z"/>
<path d="M1920 1748 c0 -21 76 -140 133 -209 88 -106 220 -194 326 -218 l41
-9 0 224 0 224 -250 0 c-187 0 -250 -3 -250 -12z"/>
<path d="M2570 1536 l0 -224 40 9 c109 25 237 110 327 218 57 69 133 188 133
209 0 9 -63 12 -250 12 l-250 0 0 -224z"/>
<path d="M3243 1748 c-5 -7 -22 -38 -37 -68 -15 -30 -54 -94 -87 -143 -65 -97
-63 -97 61 -14 77 52 240 205 240 225 0 17 -164 16 -177 0z"/>
<path d="M4755 2818 l-100 -103 103 100 c95 93 107 105 99 105 -1 0 -47 -46
-102 -102z"/>
<path d="M219 2133 l-24 -28 28 24 c15 14 27 26 27 28 0 8 -8 1 -31 -24z"/>
<path d="M2175 238 l-100 -103 103 100 c56 55 102 101 102 102 0 8 -12 -4
-105 -99z"/>
<path d="M2815 240 c55 -55 102 -100 105 -100 2 0 -40 45 -95 100 -55 55 -102
100 -105 100 -2 0 40 -45 95 -100z"/>
</g>
</svg>
